<!DOCTYPE svg PUBLIC "-//W3C//DTD SVG 1.1//EN" "http://www.w3.org/Graphics/SVG/1.1/DTD/svg11.dtd">
<!-- Uploaded to: SVG Repo, www.svgrepo.com, Transformed by: SVG Repo Mixer Tools -->
<svg width="800px" height="800px" viewBox="-1.6 -1.6 19.20 19.20" fill="none" xmlns="http://www.w3.org/2000/svg" stroke="#000000" stroke-width="0.00016">
<g id="SVGRepo_bgCarrier" stroke-width="0" transform="translate(3.12,3.12), scale(0.61)">
<rect x="-1.6" y="-1.6" width="19.20" height="19.20" rx="9.6" fill="#ffffff" strokewidth="0"/>
</g>
<g id="SVGRepo_tracerCarrier" stroke-linecap="round" stroke-linejoin="round" stroke="#CCCCCC" stroke-width="0.064"/>
<g id="SVGRepo_iconCarrier"> <path fill-rule="evenodd" clip-rule="evenodd" d="M8 16C12.4183 16 16 12.4183 16 8C16 3.58172 12.4183 0 8 0C3.58172 0 0 3.58172 0 8C0 12.4183 3.58172 16 8 16ZM4.29289 5.70711L6.58579 8L4.29289 10.2929L5.70711 11.7071L8 9.41421L10.2929 11.7071L11.7071 10.2929L9.41421 8L11.7071 5.70711L10.2929 4.29289L8 6.58579L5.70711 4.29289L4.29289 5.70711Z" fill="oklch(64.5% 0.246 16.439)"/> </g>
</svg>